HIERARCHY
ROOT Hips
{
	OFFSET 46.222801 -9.611734 86.604401
	CHANNELS 6 Xposition Yposition Zposition Xrotation Yrotation Zrotation
	JOINT spine
	{
		OFFSET 0.000000 -0.393701 6.846367
		CHANNELS 3 Xrotation Yrotation Zrotation
		JOINT spine1
		{
			OFFSET 0.000000 -0.000002 9.496208
			CHANNELS 3 Xrotation Yrotation Zrotation
			JOINT spine2
			{
				OFFSET 0.000000 -0.000001 9.099091
				CHANNELS 3 Xrotation Yrotation Zrotation
				JOINT Neck
				{
					OFFSET 0.000000 -1.113784 23.361206
					CHANNELS 3 Xrotation Yrotation Zrotation
					JOINT Head
					{
						OFFSET 0.000000 -0.000001 7.058014
						CHANNELS 3 Xrotation Yrotation Zrotation
						End Site
						{
							OFFSET 0.000000 5.634187 17.084396
						}
					}
				}
				JOINT RightShoulder
				{
					OFFSET -3.831360 0.533489 9.826309
					CHANNELS 3 Xrotation Yrotation Zrotation
					JOINT RightArm
					{
						OFFSET 0.000000 -0.000002 12.888092
						CHANNELS 3 Xrotation Yrotation Zrotation
						JOINT RightArmRoll
						{
							OFFSET 0.000000 -0.000001 6.506165
							CHANNELS 3 Xrotation Yrotation Zrotation
							JOINT RightForeArm
							{
								OFFSET 0.000000 -0.000003 18.950104
								CHANNELS 3 Xrotation Yrotation Zrotation
								JOINT RightForeArmRoll
								{
									OFFSET 0.000000 -0.000002 7.300919
									CHANNELS 3 Xrotation Yrotation Zrotation
									JOINT RightHand
									{
										OFFSET 0.000000 -0.000002 14.651398
										CHANNELS 3 Xrotation Yrotation Zrotation
										End Site
										{
											OFFSET 0.000000 0.000000 0.100006
										}
									}
								}
							}
						}
					}
				}
				JOINT LeftShoulder
				{
					OFFSET 3.831360 0.533489 9.826309
					CHANNELS 3 Xrotation Yrotation Zrotation
					JOINT LeftArm
					{
						OFFSET 0.000000 -0.000002 12.888092
						CHANNELS 3 Xrotation Yrotation Zrotation
						JOINT LeftArmRoll
						{
							OFFSET 0.000000 -0.000001 6.506165
							CHANNELS 3 Xrotation Yrotation Zrotation
							JOINT LeftForeArm
							{
								OFFSET 0.000000 -0.000003 18.950104
								CHANNELS 3 Xrotation Yrotation Zrotation
								JOINT LeftForeArmRoll
								{
									OFFSET 0.000000 -0.000002 7.300919
									CHANNELS 3 Xrotation Yrotation Zrotation
									JOINT LeftHand
									{
										OFFSET 0.000000 -0.000002 14.651398
										CHANNELS 3 Xrotation Yrotation Zrotation
										End Site
										{
											OFFSET 0.000000 0.000000 0.100006
										}
									}
								}
							}
						}
					}
				}
			}
		}
	}
	JOINT RightUpLeg
	{
		OFFSET -6.068371 0.933477 -1.112778
		CHANNELS 3 Xrotation Yrotation Zrotation
		JOINT RightUpLegRoll
		{
			OFFSET 0.000000 -0.000003 17.179596
			CHANNELS 3 Xrotation Yrotation Zrotation
			JOINT RightLeg
			{
				OFFSET 0.000000 0.000004 -21.274300
				CHANNELS 3 Xrotation Yrotation Zrotation
				JOINT RightLegRoll
				{
					OFFSET 0.000000 -0.000004 21.343903
					CHANNELS 3 Xrotation Yrotation Zrotation
					JOINT RightFoot
					{
						OFFSET 0.000000 -0.000003 17.765198
						CHANNELS 3 Xrotation Yrotation Zrotation
						JOINT RightToeBase
						{
							OFFSET 0.000000 -0.000002 14.850792
							CHANNELS 3 Xrotation Yrotation Zrotation
							End Site
							{
								OFFSET 0.006294 0.829004 7.192139
							}
						}
					}
				}
			}
		}
	}
	JOINT LeftUpLeg
	{
		OFFSET 6.068371 0.933477 -1.112778
		CHANNELS 3 Xrotation Yrotation Zrotation
		JOINT LeftUpLegRoll
		{
			OFFSET 0.000000 -0.000003 17.179703
			CHANNELS 3 Xrotation Yrotation Zrotation
			JOINT LeftLeg
			{
				OFFSET 0.000000 -0.000003 21.274200
				CHANNELS 3 Xrotation Yrotation Zrotation
				JOINT LeftLegRoll
				{
					OFFSET 0.000000 -0.000004 21.541199
					CHANNELS 3 Xrotation Yrotation Zrotation
					JOINT LeftFoot
					{
						OFFSET 0.000000 -0.000003 17.567902
						CHANNELS 3 Xrotation Yrotation Zrotation
						JOINT LeftToeBase
						{
							OFFSET 0.000000 -0.000002 14.850800
							CHANNELS 3 Xrotation Yrotation Zrotation
							End Site
							{
								OFFSET -0.028210 0.829004 7.192139
							}
						}
					}
				}
			}
		}
	}
}
MOTION
Frames: 10
Frame Time: 0.041667
48.668396 -7.885791 86.863602 -1.135832 -1.782730 -0.587785 -2.997585 -1.122882 1.268983 -1.978398 -2.302368 2.490189 -0.333436 -2.275692 2.517619 25.629771 7.884492 -1.124606 15.261784 -9.806162 1.391424 -13.114966 -27.397060 -14.004196 29.015357 -44.165431 75.377380 0.000001 -0.000009 -0.000005 0.011351 -1.622630 0.256606 -0.000004 -0.000005 -3.062139 -5.000224 -7.999033 0.000155 -13.431646 43.708911 15.254900 41.552313 38.736660 -92.025099 0.000002 -0.000006 0.000012 0.358519 -1.204036 -2.523228 0.000007 -0.000010 3.001531 -5.000209 7.998756 -0.000151 -14.881801 -177.849561 -2.667263 -179.999991 0.000005 -1.118001 156.335093 -2.193807 -1.162081 -0.000001 -0.000003 0.683271 72.212879 6.978762 1.627062 25.456950 -7.355614 0.000010 -11.210219 176.842299 0.452825 -0.000003 -0.000004 -0.769028 -19.809435 1.327676 1.092029 -0.000003 -0.000002 -0.158724 71.486215 -5.315097 -6.297083 25.456856 7.355621 0.000013 
48.671696 -7.885060 86.873116 -1.138943 -1.783878 -0.587666 -2.997496 -1.122902 1.269524 -1.976824 -2.300841 2.491295 -0.331859 -2.274572 2.518718 25.627708 7.879212 -1.127461 15.262613 -9.804287 1.387831 -13.118278 -27.400086 -14.009112 29.018042 -44.158758 75.379696 0.000002 -0.000009 -0.000005 0.011349 -1.622440 0.256665 -0.000004 -0.000005 -3.062152 -5.000222 -7.999035 0.000159 -13.428581 43.702778 15.250650 41.565792 38.741584 -92.040323 0.000003 -0.000005 0.000012 0.362307 -1.206995 -2.523529 0.000007 -0.000011 3.001530 -5.000209 7.998753 -0.000148 -14.879328 -177.846624 -2.664911 -179.999991 0.000005 -1.118001 156.333468 -2.195607 -1.162943 -0.000002 -0.000003 0.683337 72.213930 6.979555 1.625919 25.456947 -7.355614 0.000010 -11.208196 176.844239 0.453378 -0.000002 -0.000005 -0.769027 -19.809932 1.327051 1.092061 -0.000003 -0.000002 -0.158771 71.485757 -5.315698 -6.297603 25.456856 7.355621 0.000013 
48.671898 -7.886816 86.870705 -1.142004 -1.784996 -0.587520 -2.997366 -1.122922 1.270045 -1.975240 -2.299325 2.492381 -0.330272 -2.273454 2.519788 25.625523 7.873885 -1.130235 15.263436 -9.802315 1.384282 -13.121478 -27.403132 -14.013980 29.020852 -44.152054 75.382202 0.000001 -0.000008 -0.000002 0.011349 -1.622201 0.256721 -0.000005 -0.000004 -3.062170 -5.000224 -7.999035 0.000155 -13.425645 43.696545 15.246562 41.579388 38.746464 -92.055732 0.000002 -0.000005 0.000012 0.366005 -1.209985 -2.523830 0.000007 -0.000010 3.001530 -5.000209 7.998753 -0.000151 -14.877047 -177.844684 -2.662257 -179.999991 0.000005 -1.118001 156.331747 -2.196505 -1.162418 -0.000002 -0.000003 0.683405 72.215098 6.980340 1.624571 25.456950 -7.355615 0.000010 -11.206180 176.845182 0.454063 -0.000004 -0.000005 -0.769027 -19.810626 1.326453 1.092091 -0.000004 -0.000002 -0.158819 71.485388 -5.316247 -6.298109 25.456854 7.355619 0.000013 
48.666397 -7.874965 86.872406 -1.144957 -1.786043 -0.587347 -2.997188 -1.122932 1.270538 -1.973657 -2.297857 2.493395 -0.328696 -2.272333 2.520786 25.623354 7.868586 -1.132893 15.264354 -9.800340 1.380861 -13.124690 -27.406281 -14.018816 29.023752 -44.145217 75.384736 0.000001 -0.000009 -0.000006 0.011349 -1.621920 0.256777 -0.000004 -0.000006 -3.062189 -5.000224 -7.999033 0.000157 -13.422891 43.690367 15.242708 41.592874 38.750996 -92.070957 0.000002 -0.000007 0.000012 0.369493 -1.212985 -2.524129 0.000007 -0.000011 3.001529 -5.000210 7.998754 -0.000150 -14.874870 -177.842717 -2.659690 -179.999991 0.000005 -1.118001 156.330025 -2.198303 -1.162286 -0.000002 -0.000003 0.683474 72.216177 6.981192 1.623237 25.456950 -7.355614 0.000010 -11.204269 176.846151 0.454656 -0.000004 -0.000004 -0.769026 -19.811326 1.325910 1.092119 -0.000004 -0.000002 -0.158866 71.485026 -5.316791 -6.298613 25.456853 7.355619 0.000013 
48.666195 -7.875072 86.871910 -1.147772 -1.786981 -0.587144 -2.996956 -1.122953 1.270982 -1.972114 -2.296471 2.494325 -0.327149 -2.271254 2.521705 25.621190 7.863401 -1.135408 15.265381 -9.798361 1.377607 -13.127779 -27.409332 -14.023462 29.026887 -44.138318 75.387530 0.000001 -0.000009 -0.000005 0.011347 -1.621600 0.256833 -0.000004 -0.000005 -3.062211 -5.000224 -7.999032 0.000158 -13.420374 43.684384 15.239185 41.606159 38.755026 -92.086058 0.000003 -0.000006 0.000013 0.372642 -1.215954 -2.524425 0.000007 -0.000010 3.001530 -5.000211 7.998752 -0.000151 -14.872882 -177.840777 -2.657327 -179.999991 0.000005 -1.118001 156.328181 -2.200099 -1.163157 -0.000001 -0.000003 0.683545 72.217345 6.981976 1.621987 25.456947 -7.355615 0.000010 -11.202654 176.847121 0.455127 -0.000003 -0.000004 -0.769026 -19.812325 1.325431 1.092144 -0.000003 -0.000002 -0.158914 71.484835 -5.317251 -6.299100 25.456858 7.355620 0.000012 
48.668896 -7.881736 86.858810 -1.150371 -1.787790 -0.586908 -2.996655 -1.122963 1.271367 -1.970611 -2.295183 2.495139 -0.325650 -2.270233 2.522508 25.619138 7.858417 -1.137757 15.266292 -9.796287 1.374497 -13.130631 -27.412314 -14.027822 29.030278 -44.131550 75.390467 0.000000 -0.000009 -0.000004 0.011346 -1.621219 0.256893 -0.000005 -0.000006 -3.062231 -5.000225 -7.999031 0.000160 -13.418155 43.678749 15.236047 41.618914 38.758496 -92.100600 0.000003 -0.000006 0.000011 0.375335 -1.218864 -2.524726 0.000006 -0.000011 3.001529 -5.000210 7.998753 -0.000147 -14.871292 -177.839794 -2.655032 -179.999991 0.000005 -1.118001 156.326173 -2.200991 -1.162643 -0.000001 -0.000003 0.683617 72.218486 6.982731 1.620733 25.456950 -7.355615 0.000010 -11.201240 176.848078 0.455433 -0.000004 -0.000005 -0.769025 -19.813616 1.325044 1.092174 -0.000003 -0.000002 -0.158961 71.484842 -5.317661 -6.299565 25.456853 7.355620 0.000013 
48.668896 -7.879823 86.862610 -1.152721 -1.788418 -0.586636 -2.996282 -1.122983 1.271693 -1.969178 -2.294037 2.495806 -0.324219 -2.269283 2.523171 25.617210 7.853731 -1.139919 15.267220 -9.794406 1.371652 -13.133248 -27.415211 -14.031840 29.034055 -44.124975 75.393882 0.000002 -0.000009 -0.000005 0.011347 -1.620801 0.256947 -0.000005 -0.000005 -3.062249 -5.000224 -7.999033 0.000154 -13.416255 43.673476 15.233340 41.631014 38.761279 -92.114629 0.000003 -0.000006 0.000011 0.377447 -1.221685 -2.525024 0.000007 -0.000010 3.001529 -5.000209 7.998753 -0.000149 -14.870003 -177.837827 -2.653439 -179.999991 0.000005 -1.118001 156.323960 -2.201868 -1.163128 -0.000001 -0.000003 0.683690 72.219695 6.983359 1.619758 25.456948 -7.355614 0.000010 -11.200240 176.848064 0.455741 -0.000003 -0.000005 -0.769024 -19.815214 1.324758 1.092200 -0.000003 -0.000002 -0.159009 71.485129 -5.317959 -6.299901 25.456851 7.355619 0.000013 
48.671097 -7.883382 86.871597 -1.154772 -1.788847 -0.586325 -2.995845 -1.122994 1.271932 -1.967836 -2.293058 2.496324 -0.322873 -2.268444 2.523669 25.615513 7.849443 -1.141855 15.268154 -9.792623 1.369083 -13.135605 -27.417843 -14.035413 29.038054 -44.118535 75.397516 0.000000 -0.000009 -0.000005 0.011344 -1.620330 0.257004 -0.000004 -0.000006 -3.062271 -5.000224 -7.999034 0.000157 -13.414739 43.668862 15.231182 41.642267 38.763055 -92.127593 0.000003 -0.000005 0.000010 0.378857 -1.224383 -2.525323 0.000006 -0.000011 3.001530 -5.000211 7.998754 -0.000148 -14.869218 -177.836870 -2.652156 -179.999991 0.000005 -1.118001 156.321542 -2.202740 -1.162624 -0.000001 -0.000003 0.683764 72.220843 6.983835 1.619159 25.456950 -7.355615 0.000010 -11.199738 176.848064 0.455824 -0.000004 -0.000004 -0.769024 -19.817314 1.324590 1.092229 -0.000003 -0.000002 -0.159056 71.485600 -5.318136 -6.300406 25.456854 7.355622 0.000013 
48.670696 -7.881468 86.867897 -1.156626 -1.789135 -0.585966 -2.995287 -1.123004 1.272112 -1.966503 -2.292180 2.496708 -0.321543 -2.267624 2.524057 25.613810 7.845124 -1.143569 15.269079 -9.790650 1.366682 -13.137854 -27.420493 -14.038872 29.042582 -44.111961 75.401627 0.000002 -0.000008 -0.000004 0.011343 -1.619760 0.257063 -0.000005 -0.000005 -3.062291 -5.000224 -7.999033 0.000157 -13.413570 43.664412 15.229462 41.653198 38.764179 -92.140447 0.000003 -0.000006 0.000014 0.379697 -1.227164 -2.525660 0.000007 -0.000011 3.001528 -5.000210 7.998752 -0.000151 -14.868822 -177.836870 -2.650890 -179.999991 0.000005 -1.118001 156.318920 -2.203610 -1.163125 -0.000002 -0.000003 0.683839 72.222195 6.984270 1.618544 25.456947 -7.355615 0.000010 -11.199430 176.849034 0.455506 -0.000003 -0.000004 -0.769023 -19.819711 1.324561 1.092257 -0.000003 -0.000002 -0.159103 71.486365 -5.318237 -6.300787 25.456853 7.355619 0.000013 
48.661594 -7.878943 86.859009 -1.158405 -1.789345 -0.585553 -2.994605 -1.123015 1.272264 -1.965111 -2.291293 2.497043 -0.320150 -2.266755 2.524387 25.611883 7.840395 -1.145110 15.270387 -9.788171 1.364365 -13.140371 -27.423500 -14.042688 29.047466 -44.104673 75.405965 0.000001 -0.000008 -0.000005 0.011343 -1.619080 0.257114 -0.000005 -0.000006 -3.062299 -5.000225 -7.999034 0.000156 -13.412623 43.659628 15.228026 41.664584 38.765111 -92.154080 0.000002 -0.000006 0.000010 0.380205 -1.230213 -2.526028 0.000007 -0.000011 3.001529 -5.000211 7.998753 -0.000150 -14.868630 -177.835901 -2.649799 -179.999991 0.000005 -1.118001 156.315996 -2.204474 -1.162626 0.000000 -0.000003 0.683917 72.223616 6.984855 1.617746 25.456950 -7.355614 0.000010 -11.199328 176.849047 0.455251 -0.000003 -0.000005 -0.769023 -19.822416 1.324642 1.092279 -0.000002 -0.000002 -0.159150 71.487301 -5.318253 -6.301244 25.456851 7.355620 0.000013 
